<?xml version="1.0" encoding="utf-8"?>
<!-- Generator: Adobe Illustrator 16.0.0, SVG Export Plug-In . SVG Version: 6.00 Build 0)  -->
<!DOCTYPE svg PUBLIC "-//W3C//DTD SVG 1.1//EN" "http://www.w3.org/Graphics/SVG/1.1/DTD/svg11.dtd">
<svg version="1.1" id="Layer_1" xmlns="http://www.w3.org/2000/svg" xmlns:xlink="http://www.w3.org/1999/xlink" x="0px" y="0px"
	 width="960px" height="560px" viewBox="0 0 960 560" enable-background="new 0 0 960 560" xml:space="preserve">
<path d="M125.22,254.959c-14.355,10.963-32.333,15.399-53.214,15.399c-25.16-0.151-49.562-8.629-69.396-24.11l26.101-44.34
	c16.705,14.095,40.163,19.576,47.993,19.576c7.831,0,13.312-2.35,13.312-7.569c0-5.221-6.525-7.309-13.05-9.396
	s-20.848-6.525-26.101-8.353c-8.971-2.952-17.353-7.458-24.764-13.312c-9.135-7.83-16.313-18.793-16.313-38.336
	c0.114-16.878,7.716-32.834,20.75-43.557c10.93-9.135,28.939-15.66,52.92-15.66s48.548,8.613,64.176,21.631l-22.415,41.762
	c-12.079-10.118-27.053-16.148-42.773-17.227c-9.396,0-14.616,1.827-14.616,7.309s8.352,7.047,12.528,8.353
	c4.176,1.305,15.139,4.437,21.37,6.525c6.232,2.088,20.881,7.308,30.017,15.139c11.346,9.768,17.597,24.192,16.966,39.151
	C148.575,226.406,139.902,243.765,125.22,254.959z"/>
<path d="M302.545,267.096H172.039V87.129h127.896v46.427h-69.135v19.576h65.253v46.166h-65.253v20.881h71.778v46.917H302.545z"/>
<path d="M494.226,267.096h-67.831l-28.711-60h-7.569v60h-58.923V87.129h78.303c22.153,0,39.152,3.915,52.202,13.05
	c14.251,10.218,22.541,26.81,22.153,44.34c0,36.509-22.153,49.56-29.983,54.258L494.226,267.096z M417.814,134.862
	c-3.845-2.557-8.455-3.709-13.05-3.263h-14.878v31.288h14.878c4.587,0.339,9.162-0.805,13.05-3.262
	c4.394-2.583,6.928-7.448,6.525-12.529C424.69,142.104,422.155,137.351,417.814,134.862z"/>
<path d="M570.081,267.096h-58.955V87.129h58.956L570.081,267.096L570.081,267.096z"/>
<path d="M693.964,270.229c-56.085,0-97.879-34.16-97.879-92.855c0-58.694,41.729-93.115,97.879-93.115
	c56.15,0,97.88,34.421,97.88,93.115C791.844,236.069,750.049,270.229,693.964,270.229z M693.964,134.078
	c-23.491,0-38.597,17.227-38.597,41.99s15.139,41.99,38.597,41.99c23.459,0,38.336-17.227,38.336-41.99
	S717.455,134.078,693.964,134.078z"/>
<path d="M193.018,295.742l-67.798,180h-57.39L0,295.742h62.61l33.898,104.404l33.997-104.404H193.018z"/>
<path d="M341.664,475.742H211.158v-180h127.831v46.427h-69.07v19.576h65.253v46.166h-65.253v20.881h71.778v46.95H341.664z"/>
<path d="M533.345,475.742h-67.831l-28.711-60h-7.569v60H370.31v-180h78.303c22.153,0,39.151,3.915,52.202,13.05
	c14.251,10.218,22.54,26.81,22.153,44.34c0,36.509-22.153,49.56-29.983,54.258L533.345,475.742z M456.771,343.475
	c-3.846-2.558-8.455-3.71-13.051-3.263h-14.878V371.5h14.878c4.587,0.339,9.162-0.805,13.051-3.263
	c4.394-2.582,6.928-7.447,6.524-12.528C463.646,350.717,461.111,345.964,456.771,343.475z"/>
<path d="M609.2,475.742h-58.955v-180H609.2v179.967V475.742z"/>
<path d="M768.287,342.169h-66.492v27.929h62.609v46.427h-62.609v59.218h-58.728v-180h125.22V342.169L768.287,342.169z"/>
<path d="M960,295.742l-62.773,109.56v70.44h-58.728v-70.44l-62.414-109.56h65.253l26.525,60.782l26.852-60.782h65.253H960z"/>
</svg>
