<?xml version="1.0" standalone="no"?>
<!DOCTYPE svg PUBLIC "-//W3C//DTD SVG 20010904//EN"
 "http://www.w3.org/TR/2001/REC-SVG-20010904/DTD/svg10.dtd">
<svg version="1.0" xmlns="http://www.w3.org/2000/svg"
 width="185.000000pt" height="185.000000pt" viewBox="0 0 185.000000 185.000000"
 preserveAspectRatio="xMidYMid meet">
<metadata>
Created by potrace 1.11, written by Peter Selinger 2001-2013
</metadata>
<g transform="translate(0.000000,185.000000) scale(0.100000,-0.100000)"
fill="#000000" stroke="none">
<path d="M913 1152 c-15 -39 -19 -42 -55 -42 -28 0 -38 -4 -38 -16 0 -8 -4
-13 -8 -10 -4 3 -24 1 -43 -3 -33 -8 -36 -6 -48 23 l-13 31 -11 -32 c-8 -27
-15 -33 -38 -33 -16 0 -29 -5 -29 -10 0 -6 -12 -15 -27 -21 -22 -8 -28 -7 -36
7 -9 15 -11 15 -21 3 -6 -9 -19 -18 -29 -22 -10 -4 -16 -11 -13 -16 3 -5 -9
-19 -27 -31 -17 -12 -23 -19 -12 -15 47 17 58 18 51 7 -4 -7 -2 -12 4 -12 6 0
8 -5 4 -12 -5 -9 -2 -8 9 1 13 11 23 11 41 3 21 -9 22 -8 19 12 -5 26 11 41
48 48 25 4 26 3 19 -23 l-9 -29 30 16 c27 14 33 14 54 0 27 -18 38 -11 24 16
-15 27 -3 35 58 40 l53 5 -4 -44 c-5 -46 -5 -46 46 -10 26 19 26 19 58 -3 17
-12 33 -20 35 -18 3 2 0 19 -5 37 l-9 32 57 -3 57 -3 -3 -33 -4 -34 26 17 c24
16 28 16 50 2 29 -19 38 -13 26 18 -9 23 -9 23 33 11 36 -10 42 -16 42 -39 -1
-29 5 -33 22 -16 8 8 17 8 32 0 17 -9 21 -9 21 3 0 8 6 17 13 19 9 4 8 8 -3
16 -10 7 -11 11 -2 11 6 0 12 5 12 10 0 6 -9 10 -19 10 -10 0 -21 7 -25 15 -7
19 -26 20 -26 1 0 -12 -6 -12 -35 -3 -19 6 -35 16 -35 24 0 8 -11 13 -28 13
-22 0 -30 7 -41 33 l-12 32 -10 -25 c-13 -33 -26 -39 -60 -30 -15 5 -30 5 -34
2 -3 -4 -3 1 0 10 6 14 -1 17 -36 20 -38 3 -44 7 -53 35 -17 49 -25 50 -43 5z"/>
<path d="M230 806 c-48 -16 -59 -58 -24 -93 22 -22 32 -25 67 -20 23 3 47 14
54 23 42 57 -21 115 -97 90z m68 -28 c20 -20 14 -48 -14 -58 -45 -18 -89 24
-58 55 18 18 55 20 72 3z"/>
<path d="M828 809 c-20 -11 -24 -34 -7 -44 5 -4 29 -9 52 -12 48 -5 64 -22 39
-41 -11 -9 -33 -11 -62 -8 -31 4 -39 3 -25 -3 54 -25 123 -3 111 36 -5 16 -18
22 -56 27 -55 7 -67 18 -45 36 10 8 30 10 58 6 29 -4 38 -3 27 4 -19 13 -70
12 -92 -1z"/>
<path d="M1386 804 c-9 -8 -16 -20 -16 -25 0 -13 45 -29 80 -29 34 0 47 -25
20 -40 -24 -13 -56 -13 -81 0 -11 6 -19 7 -19 2 0 -23 87 -29 114 -9 27 20 13
57 -22 57 -42 0 -72 11 -72 25 0 19 34 28 73 20 24 -5 28 -4 17 4 -23 16 -76
13 -94 -5z"/>
<path d="M0 750 c0 -47 3 -60 15 -60 9 0 15 9 15 25 0 23 4 25 40 25 36 0 40
-2 40 -25 0 -16 6 -25 15 -25 12 0 15 13 15 60 0 47 -3 60 -15 60 -8 0 -15 -9
-15 -20 0 -17 -7 -20 -40 -20 -33 0 -40 3 -40 20 0 11 -7 20 -15 20 -12 0 -15
-13 -15 -60z"/>
<path d="M340 796 c0 -9 9 -12 28 -10 26 3 27 2 26 -47 -1 -41 1 -49 15 -47
12 3 16 15 16 51 0 36 4 47 15 46 28 -2 40 1 40 11 0 6 -30 10 -70 10 -53 0
-70 -3 -70 -14z"/>
<path d="M510 750 l0 -60 65 0 c37 0 65 4 65 10 0 10 -4 11 -59 14 -45 1 -52
24 -9 28 39 4 35 23 -4 22 -17 0 -28 5 -28 14 0 9 12 12 38 11 53 -2 64 0 57
11 -3 6 -33 10 -66 10 l-59 0 0 -60z"/>
<path d="M670 750 l0 -60 60 0 c42 0 60 4 60 13 0 8 -15 12 -45 11 l-45 -1 0
48 c0 37 -4 49 -15 49 -12 0 -15 -13 -15 -60z"/>
<path d="M976 801 c29 -6 30 -7 29 -59 -1 -29 1 -50 4 -46 3 3 6 27 6 52 0 44
2 47 30 53 20 4 8 7 -35 7 -43 -1 -55 -3 -34 -7z"/>
<path d="M1081 750 c-17 -33 -27 -60 -21 -60 5 0 10 7 10 15 0 11 12 15 50 15
38 0 50 -4 50 -15 0 -8 5 -15 10 -15 6 0 -3 27 -20 60 -17 33 -34 60 -39 60
-5 0 -23 -27 -40 -60z m69 -12 c0 -5 -13 -8 -30 -8 -34 0 -37 6 -14 39 l17 24
13 -24 c7 -13 13 -27 14 -31z"/>
<path d="M1221 748 c1 -35 4 -51 6 -35 4 22 9 27 33 27 19 0 35 -9 48 -25 25
-32 37 -33 17 -1 -15 22 -15 25 1 34 12 7 15 16 10 36 -6 24 -10 26 -61 26
l-55 0 1 -62z m104 27 c0 -17 -8 -20 -47 -23 -46 -3 -48 -2 -48 23 0 25 2 26
48 23 39 -3 47 -6 47 -23z"/>
<path d="M1590 750 l0 -60 58 2 57 2 -52 3 c-48 4 -53 6 -53 28 0 19 5 23 24
21 14 -2 30 1 38 5 8 6 0 9 -24 9 -31 0 -38 4 -38 19 0 17 8 21 53 24 l52 3
-57 2 -58 2 0 -60z"/>
<path d="M1734 755 c1 -56 3 -60 29 -69 17 -6 37 -6 55 0 25 9 27 13 28 69 1
58 1 58 -3 8 -4 -56 -22 -76 -63 -70 -31 5 -38 17 -43 72 -4 45 -4 44 -3 -10z"/>
</g>
</svg>
